<svg width="120" height="120" viewBox="0 0 120 120" fill="none" xmlns="http://www.w3.org/2000/svg">
<rect x="5" y="22" width="105" height="66" rx="9" stroke="white" stroke-width="10"/>
<path d="M77 55C77 66.0457 68.0457 75 57 75C45.9543 75 37 66.0457 37 55C37 43.9543 45.9543 35 57 35C68.0457 35 77 43.9543 77 55ZM47.0476 55C47.0476 60.4966 51.5034 64.9524 57 64.9524C62.4966 64.9524 66.9524 60.4966 66.9524 55C66.9524 49.5034 62.4966 45.0476 57 45.0476C51.5034 45.0476 47.0476 49.5034 47.0476 55Z" fill="white"/>
<circle cx="89" cy="40" r="5" fill="white"/>
</svg>
