<svg width="100" height="100" viewBox="0 0 100 100" fill="none" xmlns="http://www.w3.org/2000/svg">
<path fill-rule="evenodd" clip-rule="evenodd" d="M1.8989 36.2824L95.7216 0.308067C96.2563 0.043358 96.8586 -0.054048 97.4497 0.0286193C98.0408 0.111287 98.5931 0.370169 99.0341 0.771326C99.4751 1.17248 99.7843 1.69719 99.9211 2.27666C100.058 2.85613 100.016 3.46331 99.8009 4.0186L63.9035 98.0921C63.6981 98.6332 63.3379 99.1022 62.8676 99.4409C62.3973 99.7796 61.8376 99.9731 61.258 99.9974C60.6784 100.022 60.1045 99.8756 59.6074 99.5774C59.1103 99.2792 58.7119 98.8419 58.4618 98.3199L43.9967 68.4729L72.7065 27.4861L31.6937 56.0393L1.67862 41.7017C1.15743 41.4519 0.720976 41.0553 0.423113 40.5609C0.125249 40.0666 -0.0209925 39.4961 0.00243139 38.9198C0.0258553 38.3435 0.21792 37.7867 0.554928 37.318C0.891935 36.8493 1.35914 36.4893 1.8989 36.2824Z" fill="white"/>
</svg>
